<?xml version="1.0" encoding="UTF-8" standalone="no"?>
<!-- Created with Inkscape (http://www.inkscape.org/) -->

<svg
   version="1.1"
   id="svg2"
   width="461.33334"
   height="88"
   viewBox="0 0 461.33334 88"
   sodipodi:docname="the-professional-couriers-seeklogo.eps"
   xmlns:inkscape="http://www.inkscape.org/namespaces/inkscape"
   xmlns:sodipodi="http://sodipodi.sourceforge.net/DTD/sodipodi-0.dtd"
   xmlns="http://www.w3.org/2000/svg"
   xmlns:svg="http://www.w3.org/2000/svg">
  <defs
     id="defs6">
    <clipPath
       clipPathUnits="userSpaceOnUse"
       id="clipPath28">
      <path
         d="m 452.781,100.191 v 153.7 h 103.852 c 36.531,0 63.258,-4.481 80.172,-13.434 16.91,-8.957 25.367,-23.184 25.367,-42.637 0,-18.129 -7.609,-31.347 -22.774,-39.73 -15.226,-8.348 -39.296,-12.539 -72.339,-12.539 h -27.344 v -45.36 z m 87.278,110.922 v -25.582 h 13.586 c 8.289,0 14.601,1.114 19.054,3.297 4.399,2.223 6.598,5.34 6.598,9.387 0,4.051 -2.258,7.203 -6.766,9.496 -4.57,2.258 -10.828,3.402 -18.886,3.402 z"
         id="path26" />
    </clipPath>
    <clipPath
       clipPathUnits="userSpaceOnUse"
       id="clipPath40">
      <path
         d="m 771.465,213.398 v -30.093 h 13.527 c 8.235,0 14.61,1.289 19.059,3.832 4.457,2.578 6.656,6.234 6.656,11 0,4.906 -2.199,8.668 -6.656,11.324 -4.449,2.613 -10.824,3.937 -19.059,3.937 z M 686.219,99.2539 V 252.953 h 109.32 c 31.684,0 55.871,-4.445 72.617,-13.328 16.746,-8.887 25.086,-21.711 25.086,-38.441 0,-10.93 -4.23,-19.922 -12.629,-26.981 -8.398,-7.094 -19.785,-11.211 -34.105,-12.394 l 64.664,-62.5551 h -97.477 l -42.23,50.6951 V 99.2539 Z"
         id="path38" />
    </clipPath>
    <clipPath
       clipPathUnits="userSpaceOnUse"
       id="clipPath52">
      <path
         d="m 1042.24,146.762 c 12.24,0 22.05,2.652 29.49,7.918 7.44,5.3 11.16,12.289 11.16,21.066 0,8.813 -3.72,15.871 -11.16,21.242 -7.44,5.34 -17.25,8.028 -29.49,8.028 -12.29,0 -22.15,-2.688 -29.65,-8.098 -7.5,-5.375 -11.22,-12.434 -11.22,-21.172 0,-8.777 3.72,-15.766 11.22,-21.066 7.5,-5.266 17.36,-7.918 29.65,-7.918 z m 129.28,29.019 c 0,-11.25 -3.16,-21.746 -9.42,-31.418 -6.25,-9.711 -15.44,-18.383 -27.56,-26.011 -12.13,-7.454 -26.05,-13.223 -41.9,-17.2 -15.78,-3.9762 -32.58,-5.984 -50.4,-5.984 -18.1,0 -34.95,2.0078 -50.736,5.984 -15.731,3.977 -29.715,9.782 -41.953,17.411 -12.004,7.417 -21.082,15.98 -27.227,25.617 -6.148,9.675 -9.246,20.211 -9.246,31.601 0,11.391 3.098,21.961 9.246,31.707 6.145,9.711 15.223,18.309 27.227,25.723 12.125,7.559 26.051,13.293 41.781,17.234 15.788,3.977 32.698,5.95 50.908,5.95 18.16,0 35.07,-1.973 50.86,-5.95 15.73,-3.941 29.71,-9.675 41.94,-17.234 11.9,-7.484 20.92,-16.121 27.12,-25.828 6.26,-9.746 9.36,-20.281 9.36,-31.602 z"
         id="path50" />
    </clipPath>
    <clipPath
       clipPathUnits="userSpaceOnUse"
       id="clipPath64">
      <path
         d="m 2217.87,146.762 c 12.24,0 22.05,2.652 29.49,7.918 7.44,5.3 11.16,12.289 11.16,21.066 0,8.813 -3.72,15.871 -11.16,21.242 -7.44,5.34 -17.25,8.028 -29.49,8.028 -12.28,0 -22.16,-2.688 -29.66,-8.098 -7.49,-5.375 -11.21,-12.434 -11.21,-21.172 0,-8.777 3.72,-15.766 11.21,-21.066 7.5,-5.266 17.38,-7.918 29.66,-7.918 z m 129.28,29.019 c 0,-11.25 -3.16,-21.746 -9.42,-31.418 -6.25,-9.711 -15.44,-18.383 -27.57,-26.011 -12.12,-7.454 -26.04,-13.223 -41.89,-17.2 -15.78,-3.9762 -32.58,-5.984 -50.4,-5.984 -18.09,0 -34.95,2.0078 -50.74,5.984 -15.73,3.977 -29.71,9.782 -41.95,17.411 -12,7.417 -21.08,15.98 -27.22,25.617 -6.15,9.675 -9.25,20.211 -9.25,31.601 0,11.391 3.1,21.961 9.25,31.707 6.14,9.711 15.22,18.309 27.22,25.723 12.12,7.559 26.05,13.293 41.78,17.234 15.79,3.977 32.7,5.95 50.91,5.95 18.16,0 35.07,-1.973 50.86,-5.95 15.73,-3.941 29.71,-9.675 41.94,-17.234 11.9,-7.484 20.92,-16.121 27.12,-25.828 6.26,-9.746 9.36,-20.281 9.36,-31.602 z"
         id="path62" />
    </clipPath>
    <clipPath
       clipPathUnits="userSpaceOnUse"
       id="clipPath76">
      <path
         d="M 2378.41,99.2539 V 252.953 h 85.19 l 75.1,-80.433 c -1.01,3.585 -1.69,7.523 -2.08,11.859 -0.4,4.371 -0.57,10.031 -0.57,17.019 v 51.555 h 83.89 V 99.2539 h -85.92 l -74.36,79.7851 c 0.9,-3.437 1.52,-7.129 1.97,-11.066 0.45,-3.946 0.68,-8.387 0.68,-13.293 V 99.2539 Z"
         id="path74" />
    </clipPath>
    <clipPath
       clipPathUnits="userSpaceOnUse"
       id="clipPath88">
      <path
         d="m 2747.51,155.145 h 36.2 l -7.45,17.41 c -3.6,8.816 -6.08,15.621 -7.44,20.386 -1.3,4.731 -2.14,9.207 -2.48,13.399 h -1.46 c -0.34,-4.192 -1.13,-8.668 -2.49,-13.399 -1.3,-4.765 -3.78,-11.57 -7.43,-20.386 z m -115.3,-55.8911 86.26,153.6991 h 96.75 l 84.57,-153.6991 h -93.47 l -7.73,19.3481 h -65.57 l -7.44,-19.3481 z"
         id="path86" />
    </clipPath>
    <clipPath
       clipPathUnits="userSpaceOnUse"
       id="clipPath100">
      <path
         d="M 2900.6,99.2539 V 252.953 h 86.94 V 149.125 h 84.57 V 99.2539 Z"
         id="path98" />
    </clipPath>
    <clipPath
       clipPathUnits="userSpaceOnUse"
       id="clipPath112">
      <path
         d="M 1974.63,99.2539 V 252.953 h 88.3 V 99.2539 Z"
         id="path110" />
    </clipPath>
    <clipPath
       clipPathUnits="userSpaceOnUse"
       id="clipPath124">
      <path
         d="M 1200.84,99.2539 V 252.953 h 161.69 V 211.25 h -74.76 v -17.844 h 67.66 V 154.07 h -67.66 V 99.2539 Z"
         id="path122" />
    </clipPath>
    <clipPath
       clipPathUnits="userSpaceOnUse"
       id="clipPath136">
      <path
         d="M 1385.52,99.2539 V 252.953 h 161.75 V 211.25 h -76.5 v -14.832 h 69.4 v -39.34 h -69.4 v -16.121 h 78.48 V 99.2539 Z"
         id="path134" />
    </clipPath>
    <clipPath
       clipPathUnits="userSpaceOnUse"
       id="clipPath148">
      <path
         d="m 1559.15,109.813 27.04,43.027 c 12.15,-5.516 22.97,-9.563 32.48,-12.11 9.51,-2.542 18.35,-3.832 26.65,-3.832 5.78,0 10.39,0.719 13.69,2.149 3.35,1.433 5,3.367 5,5.84 0,4.261 -8.3,7.488 -24.95,9.746 -5.39,0.754 -9.56,1.363 -12.59,1.789 -17.64,2.797 -31.1,7.777 -40.45,14.906 -9.34,7.129 -14.01,16.016 -14.01,26.652 0,16.52 9.07,29.958 27.2,40.309 18.14,10.356 41.94,15.551 71.34,15.551 13.52,0 26.82,-1.149 39.9,-3.477 13.14,-2.293 26.32,-5.804 39.63,-10.5 l -25.72,-40.23 c -8.2,3.937 -16.33,6.914 -24.57,8.992 -8.19,2.043 -16.16,3.078 -23.85,3.078 -5.94,0 -10.5,-0.64 -13.69,-1.933 -3.24,-1.29 -4.84,-3.118 -4.84,-5.411 0,-4.332 11.77,-8.132 35.23,-11.429 3.74,-0.571 6.65,-0.965 8.68,-1.25 16.22,-2.403 29.02,-7.239 38.37,-14.582 9.34,-7.348 14.01,-16.235 14.01,-26.657 0,-17.019 -9.4,-30.882 -28.25,-41.668 -18.85,-10.7847 -43.36,-16.1558 -73.53,-16.1558 -15.44,0 -30.94,1.4336 -46.38,4.2969 -15.45,2.8672 -30.95,7.1679 -46.39,12.8989 z"
         id="path146" />
    </clipPath>
    <clipPath
       clipPathUnits="userSpaceOnUse"
       id="clipPath160">
      <path
         d="m 1756.03,109.813 27.03,43.027 c 12.15,-5.516 22.98,-9.563 32.49,-12.11 9.5,-2.542 18.35,-3.832 26.65,-3.832 5.77,0 10.38,0.719 13.69,2.149 3.34,1.433 5,3.367 5,5.84 0,4.261 -8.31,7.488 -24.96,9.746 -5.38,0.754 -9.55,1.363 -12.58,1.789 -17.64,2.797 -31.11,7.777 -40.45,14.906 -9.34,7.129 -14.02,16.016 -14.02,26.652 0,16.52 9.08,29.958 27.21,40.309 18.13,10.356 41.93,15.551 71.34,15.551 13.52,0 26.82,-1.149 39.89,-3.477 13.14,-2.293 26.33,-5.804 39.63,-10.5 l -25.72,-40.23 c -8.19,3.937 -16.32,6.914 -24.57,8.992 -8.18,2.043 -16.16,3.078 -23.85,3.078 -5.93,0 -10.5,-0.64 -13.68,-1.933 -3.24,-1.29 -4.84,-3.118 -4.84,-5.411 0,-4.332 11.76,-8.132 35.23,-11.429 3.73,-0.571 6.65,-0.965 8.68,-1.25 16.21,-2.403 29.02,-7.239 38.36,-14.582 9.34,-7.348 14.02,-16.235 14.02,-26.657 0,-17.019 -9.4,-30.882 -28.25,-41.668 -18.85,-10.7847 -43.37,-16.1558 -73.54,-16.1558 -15.44,0 -30.93,1.4336 -46.38,4.2969 -15.45,2.8672 -30.95,7.1679 -46.38,12.8989 z"
         id="path158" />
    </clipPath>
  </defs>
  <sodipodi:namedview
     id="namedview4"
     pagecolor="#ffffff"
     bordercolor="#000000"
     borderopacity="0.25"
     inkscape:showpageshadow="2"
     inkscape:pageopacity="0.0"
     inkscape:pagecheckerboard="0"
     inkscape:deskcolor="#d1d1d1" />
  <g
     id="g8"
     inkscape:groupmode="layer"
     inkscape:label="ink_ext_XXXXXX"
     transform="matrix(1.3333333,0,0,-1.3333333,0,88)">
    <g
       id="g10"
       transform="scale(0.1)">
      <path
         d="M 408.25,175.691 H 3302.3"
         style="fill:none;stroke:#ed1c24;stroke-width:14.9981;stroke-linecap:butt;stroke-linejoin:miter;stroke-miterlimit:22.9256;stroke-dasharray:none;stroke-opacity:1"
         id="path12" />
      <path
         d="m 1573.69,188.711 h 163.13 v -20.156 h -163.13 v 20.156"
         style="fill:#ee2234;fill-opacity:1;fill-rule:evenodd;stroke:none"
         id="path14" />
      <path
         d="m 2445.67,36.9023 18.85,-4.3007 c -2.9,-7.8828 -7.72,-13.7305 -14.46,-17.5664 -6.72,-3.8164 -15.25,-5.73442 -25.6,-5.73442 -12.8,0 -23.33,3.25002 -31.58,9.75002 -8.24,6.5 -12.37,15.3828 -12.37,26.668 0,11.9179 4.15,21.1835 12.43,27.7812 8.28,6.6016 19.19,9.9023 32.69,9.9023 11.8,0 21.38,-2.6015 28.74,-7.7851 4.4,-3.0664 7.68,-7.4649 9.88,-13.2149 l -19.26,-3.3984 c -1.14,3.6992 -3.52,6.6328 -7.13,8.7813 -3.64,2.1484 -8.03,3.2148 -13.2,3.2148 -7.15,0 -12.96,-1.8984 -17.4,-5.7148 -4.47,-3.8008 -6.69,-9.9688 -6.69,-18.5 0,-9.0352 2.2,-15.4844 6.57,-19.3164 4.4,-3.8516 10.1,-5.7696 17.12,-5.7696 5.19,0 9.65,1.2188 13.38,3.668 3.72,2.4492 6.41,6.2851 8.03,11.5351 z m 31.52,8.9688 c 0,7.2969 1.48,13.4297 4.42,18.3984 2.18,3.6485 5.18,6.9336 8.98,9.8321 3.79,2.9023 7.94,5.0507 12.45,6.4648 6.01,1.8867 12.94,2.8359 20.8,2.8359 14.22,0 25.57,-3.2851 34.12,-9.832 8.52,-6.5703 12.79,-15.6836 12.79,-27.3711 0,-11.582 -4.24,-20.6484 -12.7,-27.1797 -8.46,-6.5507 -19.79,-9.82028 -33.94,-9.82028 -14.34,0 -25.76,3.25388 -34.22,9.76958 -8.46,6.5 -12.7,15.4648 -12.7,26.9023 z m 20.06,0.4805 c 0,-8.1172 2.54,-14.2657 7.59,-18.4688 5.04,-4.1797 11.46,-6.2812 19.22,-6.2812 7.79,0 14.16,2.082 19.16,6.2343 4.98,4.168 7.48,10.3985 7.48,18.7149 0,8.2148 -2.43,14.3515 -7.3,18.3828 -4.85,4.0508 -11.29,6.0664 -19.34,6.0664 -8.03,0 -14.52,-2.0469 -19.43,-6.1328 -4.92,-4.0977 -7.38,-10.2656 -7.38,-18.5156 z m 88.69,35.75 h 19.52 V 43.3008 c 0,-6.1641 0.24,-10.1524 0.72,-11.9649 0.82,-2.9336 2.78,-5.3007 5.87,-7.0664 3.12,-1.7851 7.36,-2.6679 12.75,-2.6679 5.45,0 9.58,0.832 12.36,2.5156 2.78,1.6875 4.44,3.7344 5,6.1836 0.56,2.4492 0.85,6.5 0.85,12.168 v 39.6328 h 19.52 V 44.4531 c 0,-8.6015 -0.51,-14.6836 -1.57,-18.2343 -1.05,-3.5508 -2.98,-6.5508 -5.81,-9 -2.8,-2.4493 -6.57,-4.3829 -11.28,-5.8321 -4.74,-1.45311 -10.89,-2.18748 -18.49,-2.18748 -9.18,0 -16.13,0.78516 -20.86,2.36718 -4.74,1.5859 -8.48,3.6367 -11.25,6.168 -2.75,2.5312 -4.55,5.164 -5.43,7.9492 -1.27,4.1016 -1.9,10.168 -1.9,18.1836 z M 2683.15,10.5 v 71.6016 h 40.99 c 10.3,0 17.8,-0.6485 22.46,-1.9336 4.69,-1.2852 8.42,-3.5664 11.22,-6.8516 2.81,-3.2969 4.22,-7.0508 4.22,-11.2812 0,-5.3829 -2.11,-9.8164 -6.35,-13.3164 -4.24,-3.5 -10.57,-5.6993 -19,-6.6172 4.19,-1.8164 7.65,-3.8164 10.36,-6 2.74,-2.1836 6.42,-6.0664 11.04,-11.6328 L 2769.85,10.5 h -23.27 l -13.95,15.6328 c -5,5.5508 -8.44,9.0508 -10.31,10.5 -1.84,1.4336 -3.78,2.4375 -5.85,2.9688 -2.08,0.5351 -5.36,0.8007 -9.85,0.8007 h -3.95 V 10.5 Z m 19.52,41.3008 h 14.4 c 9.34,0 15.15,0.3008 17.48,0.8828 2.31,0.5859 4.15,1.6016 5.45,3.0352 1.33,1.4335 1.98,3.2343 1.98,5.3828 0,2.4179 -0.88,4.3476 -2.6,5.8476 -1.73,1.4883 -4.18,2.418 -7.32,2.8008 -1.59,0.168 -6.32,0.25 -14.2,0.25 h -15.19 z M 2779.7,10.5 v 71.6016 h 19.51 V 10.5 Z m 38.07,0 v 71.6016 h 71.35 V 70 h -51.83 V 54.1016 h 48.19 V 42.0039 h -48.19 V 22.6016 H 2891 V 10.5 Z m 89.78,0 v 71.6016 h 40.99 c 10.3,0 17.8,-0.6485 22.47,-1.9336 4.69,-1.2852 8.41,-3.5664 11.21,-6.8516 2.81,-3.2969 4.22,-7.0508 4.22,-11.2812 0,-5.3829 -2.1,-9.8164 -6.35,-13.3164 -4.24,-3.5 -10.57,-5.6993 -19,-6.6172 4.2,-1.8164 7.65,-3.8164 10.36,-6 2.74,-2.1836 6.42,-6.0664 11.04,-11.6328 L 2994.25,10.5 h -23.27 l -13.95,15.6328 c -5,5.5508 -8.44,9.0508 -10.3,10.5 -1.84,1.4336 -3.79,2.4375 -5.85,2.9688 -2.09,0.5351 -5.37,0.8007 -9.86,0.8007 h -3.94 V 10.5 Z m 19.53,41.3008 h 14.4 c 9.33,0 15.15,0.3008 17.48,0.8828 2.31,0.5859 4.15,1.6016 5.45,3.0352 1.32,1.4335 1.97,3.2343 1.97,5.3828 0,2.4179 -0.87,4.3476 -2.6,5.8476 -1.73,1.4883 -4.17,2.418 -7.31,2.8008 -1.59,0.168 -6.33,0.25 -14.21,0.25 h -15.18 z m 72.58,-18.1016 18.98,1.4024 c 1.14,-4.7188 3.43,-8.168 6.91,-10.3828 3.48,-2.2188 8.16,-3.3165 14.06,-3.3165 6.24,0 10.96,0.9805 14.12,2.9493 3.16,1.9687 4.75,4.2656 4.75,6.8984 0,1.7031 -0.67,3.1367 -1.99,4.3359 -1.33,1.1797 -3.66,2.2149 -6.98,3.0821 -2.26,0.5976 -7.43,1.6328 -15.5,3.1328 -10.39,1.9336 -17.68,4.3008 -21.88,7.1172 -5.9,3.9492 -8.84,8.7656 -8.84,14.4492 0,3.6523 1.39,7.0859 4.15,10.2656 2.78,3.1836 6.78,5.6016 12.01,7.2695 5.23,1.668 11.51,2.5 18.91,2.5 12.05,0 21.14,-1.9843 27.21,-5.9648 6.11,-3.9844 9.29,-9.2852 9.61,-15.9336 L 3055.66,61 c -0.83,3.7031 -2.61,6.3516 -5.32,7.9688 -2.71,1.6171 -6.8,2.4335 -12.23,2.4335 -5.6,0 -10,-0.8671 -13.17,-2.6015 -2.04,-1.1172 -3.07,-2.5977 -3.07,-4.4649 0,-1.6992 0.96,-3.1523 2.89,-4.3515 2.45,-1.5508 8.39,-3.1524 17.84,-4.8164 9.45,-1.6524 16.42,-3.3828 20.93,-5.1485 4.54,-1.7851 8.08,-4.2031 10.64,-7.2851 2.56,-3.0821 3.83,-6.8828 3.83,-11.3985 0,-4.1015 -1.52,-7.9492 -4.59,-11.5351 -3.08,-3.582 -7.41,-6.25 -13.02,-7.9844 -5.61,-1.75 -12.6,-2.61718 -20.98,-2.61718 -12.18,0 -21.53,2.08598 -28.06,6.26958 -6.53,4.164 -10.41,10.25 -11.69,18.2304"
         style="fill:#ed1c24;fill-opacity:1;fill-rule:nonzero;stroke:none"
         id="path16" />
      <path
         d="m 479.73,269.066 v 59.5 h -27.277 v 12.102 h 73.074 v -12.102 h -27.144 v -59.5 z m 57.868,0 v 71.602 h 18.66 v -28.199 h 36.277 v 28.199 h 18.653 v -71.602 h -18.653 v 31.301 h -36.277 v -31.301 z m 92.914,0 v 71.602 h 68.187 v -12.102 h -49.531 v -15.898 h 46.055 V 300.566 H 649.168 V 281.168 H 700.5 v -12.102 h -69.988"
         style="fill:#ed1c24;fill-opacity:1;fill-rule:nonzero;stroke:none"
         id="path18" />
      <path
         d="m 452.781,100.191 v 153.7 h 103.852 c 36.531,0 63.258,-4.481 80.172,-13.434 16.91,-8.957 25.367,-23.184 25.367,-42.637 0,-18.129 -7.609,-31.347 -22.774,-39.73 -15.226,-8.348 -39.296,-12.539 -72.339,-12.539 h -27.344 v -45.36 z m 87.278,110.922 v -25.582 h 13.586 c 8.289,0 14.601,1.114 19.054,3.297 4.399,2.223 6.598,5.34 6.598,9.387 0,4.051 -2.258,7.203 -6.766,9.496 -4.57,2.258 -10.828,3.402 -18.886,3.402 h -13.586"
         style="fill:#ed1c24;fill-opacity:1;fill-rule:nonzero;stroke:none"
         id="path20" />
      <g
         id="g22">
        <g
           id="g24"
           clip-path="url(#clipPath28)">
          <path
             d="M 408.25,175.691 H 3127"
             style="fill:none;stroke:#ffffff;stroke-width:14.9981;stroke-linecap:butt;stroke-linejoin:miter;stroke-miterlimit:22.9256;stroke-dasharray:none;stroke-opacity:1"
             id="path30" />
        </g>
      </g>
      <path
         d="m 771.465,213.398 v -30.093 h 13.527 c 8.235,0 14.61,1.289 19.059,3.832 4.457,2.578 6.656,6.234 6.656,11 0,4.906 -2.199,8.668 -6.656,11.324 -4.449,2.613 -10.824,3.937 -19.059,3.937 z M 686.219,99.2539 V 252.953 h 109.32 c 31.684,0 55.871,-4.445 72.617,-13.328 16.746,-8.887 25.086,-21.711 25.086,-38.441 0,-10.93 -4.23,-19.922 -12.629,-26.981 -8.398,-7.094 -19.785,-11.211 -34.105,-12.394 l 64.664,-62.5551 h -97.477 l -42.23,50.6951 V 99.2539 h -85.246"
         style="fill:#ed1c24;fill-opacity:1;fill-rule:nonzero;stroke:none"
         id="path32" />
      <g
         id="g34">
        <g
           id="g36"
           clip-path="url(#clipPath40)">
          <path
             d="M 408.25,175.691 H 3127"
             style="fill:none;stroke:#ffffff;stroke-width:14.9981;stroke-linecap:butt;stroke-linejoin:miter;stroke-miterlimit:22.9256;stroke-dasharray:none;stroke-opacity:1"
             id="path42" />
        </g>
      </g>
      <path
         d="m 1042.24,146.762 c 12.24,0 22.05,2.652 29.49,7.918 7.44,5.3 11.16,12.289 11.16,21.066 0,8.813 -3.72,15.871 -11.16,21.242 -7.44,5.34 -17.25,8.028 -29.49,8.028 -12.29,0 -22.15,-2.688 -29.65,-8.098 -7.5,-5.375 -11.22,-12.434 -11.22,-21.172 0,-8.777 3.72,-15.766 11.22,-21.066 7.5,-5.266 17.36,-7.918 29.65,-7.918 z m 129.28,29.019 c 0,-11.25 -3.16,-21.746 -9.42,-31.418 -6.25,-9.711 -15.44,-18.383 -27.56,-26.011 -12.13,-7.454 -26.05,-13.223 -41.9,-17.2 -15.78,-3.9762 -32.58,-5.984 -50.4,-5.984 -18.1,0 -34.95,2.0078 -50.736,5.984 -15.731,3.977 -29.715,9.782 -41.953,17.411 -12.004,7.417 -21.082,15.98 -27.227,25.617 -6.148,9.675 -9.246,20.211 -9.246,31.601 0,11.391 3.098,21.961 9.246,31.707 6.145,9.711 15.223,18.309 27.227,25.723 12.125,7.559 26.051,13.293 41.781,17.234 15.788,3.977 32.698,5.95 50.908,5.95 18.16,0 35.07,-1.973 50.86,-5.95 15.73,-3.941 29.71,-9.675 41.94,-17.234 11.9,-7.484 20.92,-16.121 27.12,-25.828 6.26,-9.746 9.36,-20.281 9.36,-31.602"
         style="fill:#ed1c24;fill-opacity:1;fill-rule:nonzero;stroke:none"
         id="path44" />
      <g
         id="g46">
        <g
           id="g48"
           clip-path="url(#clipPath52)">
          <path
             d="M 408.25,175.691 H 3127"
             style="fill:none;stroke:#ffffff;stroke-width:14.9981;stroke-linecap:butt;stroke-linejoin:miter;stroke-miterlimit:22.9256;stroke-dasharray:none;stroke-opacity:1"
             id="path54" />
        </g>
      </g>
      <path
         d="m 2217.87,146.762 c 12.24,0 22.05,2.652 29.49,7.918 7.44,5.3 11.16,12.289 11.16,21.066 0,8.813 -3.72,15.871 -11.16,21.242 -7.44,5.34 -17.25,8.028 -29.49,8.028 -12.28,0 -22.16,-2.688 -29.66,-8.098 -7.49,-5.375 -11.21,-12.434 -11.21,-21.172 0,-8.777 3.72,-15.766 11.21,-21.066 7.5,-5.266 17.38,-7.918 29.66,-7.918 z m 129.28,29.019 c 0,-11.25 -3.16,-21.746 -9.42,-31.418 -6.25,-9.711 -15.44,-18.383 -27.57,-26.011 -12.12,-7.454 -26.04,-13.223 -41.89,-17.2 -15.78,-3.9762 -32.58,-5.984 -50.4,-5.984 -18.09,0 -34.95,2.0078 -50.74,5.984 -15.73,3.977 -29.71,9.782 -41.95,17.411 -12,7.417 -21.08,15.98 -27.22,25.617 -6.15,9.675 -9.25,20.211 -9.25,31.601 0,11.391 3.1,21.961 9.25,31.707 6.14,9.711 15.22,18.309 27.22,25.723 12.12,7.559 26.05,13.293 41.78,17.234 15.79,3.977 32.7,5.95 50.91,5.95 18.16,0 35.07,-1.973 50.86,-5.95 15.73,-3.941 29.71,-9.675 41.94,-17.234 11.9,-7.484 20.92,-16.121 27.12,-25.828 6.26,-9.746 9.36,-20.281 9.36,-31.602"
         style="fill:#ed1c24;fill-opacity:1;fill-rule:nonzero;stroke:none"
         id="path56" />
      <g
         id="g58">
        <g
           id="g60"
           clip-path="url(#clipPath64)">
          <path
             d="M 408.25,175.691 H 3127"
             style="fill:none;stroke:#ffffff;stroke-width:14.9981;stroke-linecap:butt;stroke-linejoin:miter;stroke-miterlimit:22.9256;stroke-dasharray:none;stroke-opacity:1"
             id="path66" />
        </g>
      </g>
      <path
         d="M 2378.41,99.2539 V 252.953 h 85.19 l 75.1,-80.433 c -1.01,3.585 -1.69,7.523 -2.08,11.859 -0.4,4.371 -0.57,10.031 -0.57,17.019 v 51.555 h 83.89 V 99.2539 h -85.92 l -74.36,79.7851 c 0.9,-3.437 1.52,-7.129 1.97,-11.066 0.45,-3.946 0.68,-8.387 0.68,-13.293 V 99.2539 h -83.9"
         style="fill:#ed1c24;fill-opacity:1;fill-rule:nonzero;stroke:none"
         id="path68" />
      <g
         id="g70">
        <g
           id="g72"
           clip-path="url(#clipPath76)">
          <path
             d="M 408.25,175.691 H 3127"
             style="fill:none;stroke:#ffffff;stroke-width:14.9981;stroke-linecap:butt;stroke-linejoin:miter;stroke-miterlimit:22.9256;stroke-dasharray:none;stroke-opacity:1"
             id="path78" />
        </g>
      </g>
      <path
         d="m 2747.51,155.145 h 36.2 l -7.45,17.41 c -3.6,8.816 -6.08,15.621 -7.44,20.386 -1.3,4.731 -2.14,9.207 -2.48,13.399 h -1.46 c -0.34,-4.192 -1.13,-8.668 -2.49,-13.399 -1.3,-4.765 -3.78,-11.57 -7.43,-20.386 z m -115.3,-55.8911 86.26,153.6991 h 96.75 l 84.57,-153.6991 h -93.47 l -7.73,19.3481 h -65.57 l -7.44,-19.3481 h -93.37"
         style="fill:#ed1c24;fill-opacity:1;fill-rule:nonzero;stroke:none"
         id="path80" />
      <g
         id="g82">
        <g
           id="g84"
           clip-path="url(#clipPath88)">
          <path
             d="M 408.25,175.691 H 3127"
             style="fill:none;stroke:#ffffff;stroke-width:14.9981;stroke-linecap:butt;stroke-linejoin:miter;stroke-miterlimit:22.9256;stroke-dasharray:none;stroke-opacity:1"
             id="path90" />
        </g>
      </g>
      <path
         d="M 2900.6,99.2539 V 252.953 h 86.94 V 149.125 h 84.57 V 99.2539 H 2900.6"
         style="fill:#ed1c24;fill-opacity:1;fill-rule:nonzero;stroke:none"
         id="path92" />
      <g
         id="g94">
        <g
           id="g96"
           clip-path="url(#clipPath100)">
          <path
             d="M 408.25,175.691 H 3127"
             style="fill:none;stroke:#ffffff;stroke-width:14.9981;stroke-linecap:butt;stroke-linejoin:miter;stroke-miterlimit:22.9256;stroke-dasharray:none;stroke-opacity:1"
             id="path102" />
        </g>
      </g>
      <path
         d="M 1974.63,99.2539 V 252.953 h 88.3 V 99.2539 h -88.3"
         style="fill:#ed1c24;fill-opacity:1;fill-rule:nonzero;stroke:none"
         id="path104" />
      <g
         id="g106">
        <g
           id="g108"
           clip-path="url(#clipPath112)">
          <path
             d="M 408.25,175.691 H 3127"
             style="fill:none;stroke:#ffffff;stroke-width:14.9981;stroke-linecap:butt;stroke-linejoin:miter;stroke-miterlimit:22.9256;stroke-dasharray:none;stroke-opacity:1"
             id="path114" />
        </g>
      </g>
      <path
         d="M 1200.84,99.2539 V 252.953 h 161.69 V 211.25 h -74.76 v -17.844 h 67.66 V 154.07 h -67.66 V 99.2539 h -86.93"
         style="fill:#ed1c24;fill-opacity:1;fill-rule:nonzero;stroke:none"
         id="path116" />
      <g
         id="g118">
        <g
           id="g120"
           clip-path="url(#clipPath124)">
          <path
             d="M 408.25,175.691 H 3127"
             style="fill:none;stroke:#ffffff;stroke-width:14.9981;stroke-linecap:butt;stroke-linejoin:miter;stroke-miterlimit:22.9256;stroke-dasharray:none;stroke-opacity:1"
             id="path126" />
        </g>
      </g>
      <path
         d="M 1385.52,99.2539 V 252.953 h 161.75 V 211.25 h -76.5 v -14.832 h 69.4 v -39.34 h -69.4 v -16.121 h 78.48 V 99.2539 h -163.73"
         style="fill:#ed1c24;fill-opacity:1;fill-rule:nonzero;stroke:none"
         id="path128" />
      <g
         id="g130">
        <g
           id="g132"
           clip-path="url(#clipPath136)">
          <path
             d="M 408.25,175.691 H 3127"
             style="fill:none;stroke:#ffffff;stroke-width:14.9981;stroke-linecap:butt;stroke-linejoin:miter;stroke-miterlimit:22.9256;stroke-dasharray:none;stroke-opacity:1"
             id="path138" />
        </g>
      </g>
      <path
         d="m 1559.15,109.813 27.04,43.027 c 12.15,-5.516 22.97,-9.563 32.48,-12.11 9.51,-2.542 18.35,-3.832 26.65,-3.832 5.78,0 10.39,0.719 13.69,2.149 3.35,1.433 5,3.367 5,5.84 0,4.261 -8.3,7.488 -24.95,9.746 -5.39,0.754 -9.56,1.363 -12.59,1.789 -17.64,2.797 -31.1,7.777 -40.45,14.906 -9.34,7.129 -14.01,16.016 -14.01,26.652 0,16.52 9.07,29.958 27.2,40.309 18.14,10.356 41.94,15.551 71.34,15.551 13.52,0 26.82,-1.149 39.9,-3.477 13.14,-2.293 26.32,-5.804 39.63,-10.5 l -25.72,-40.23 c -8.2,3.937 -16.33,6.914 -24.57,8.992 -8.19,2.043 -16.16,3.078 -23.85,3.078 -5.94,0 -10.5,-0.64 -13.69,-1.933 -3.24,-1.29 -4.84,-3.118 -4.84,-5.411 0,-4.332 11.77,-8.132 35.23,-11.429 3.74,-0.571 6.65,-0.965 8.68,-1.25 16.22,-2.403 29.02,-7.239 38.37,-14.582 9.34,-7.348 14.01,-16.235 14.01,-26.657 0,-17.019 -9.4,-30.882 -28.25,-41.668 -18.85,-10.7847 -43.36,-16.1558 -73.53,-16.1558 -15.44,0 -30.94,1.4336 -46.38,4.2969 -15.45,2.8672 -30.95,7.1679 -46.39,12.8989"
         style="fill:#ed1c24;fill-opacity:1;fill-rule:nonzero;stroke:none"
         id="path140" />
      <g
         id="g142">
        <g
           id="g144"
           clip-path="url(#clipPath148)">
          <path
             d="M 408.25,175.691 H 3127"
             style="fill:none;stroke:#ffffff;stroke-width:14.9981;stroke-linecap:butt;stroke-linejoin:miter;stroke-miterlimit:22.9256;stroke-dasharray:none;stroke-opacity:1"
             id="path150" />
        </g>
      </g>
      <path
         d="m 1756.03,109.813 27.03,43.027 c 12.15,-5.516 22.98,-9.563 32.49,-12.11 9.5,-2.542 18.35,-3.832 26.65,-3.832 5.77,0 10.38,0.719 13.69,2.149 3.34,1.433 5,3.367 5,5.84 0,4.261 -8.31,7.488 -24.96,9.746 -5.38,0.754 -9.55,1.363 -12.58,1.789 -17.64,2.797 -31.11,7.777 -40.45,14.906 -9.34,7.129 -14.02,16.016 -14.02,26.652 0,16.52 9.08,29.958 27.21,40.309 18.13,10.356 41.93,15.551 71.34,15.551 13.52,0 26.82,-1.149 39.89,-3.477 13.14,-2.293 26.33,-5.804 39.63,-10.5 l -25.72,-40.23 c -8.19,3.937 -16.32,6.914 -24.57,8.992 -8.18,2.043 -16.16,3.078 -23.85,3.078 -5.93,0 -10.5,-0.64 -13.68,-1.933 -3.24,-1.29 -4.84,-3.118 -4.84,-5.411 0,-4.332 11.76,-8.132 35.23,-11.429 3.73,-0.571 6.65,-0.965 8.68,-1.25 16.21,-2.403 29.02,-7.239 38.36,-14.582 9.34,-7.348 14.02,-16.235 14.02,-26.657 0,-17.019 -9.4,-30.882 -28.25,-41.668 -18.85,-10.7847 -43.37,-16.1558 -73.54,-16.1558 -15.44,0 -30.93,1.4336 -46.38,4.2969 -15.45,2.8672 -30.95,7.1679 -46.38,12.8989"
         style="fill:#ed1c24;fill-opacity:1;fill-rule:nonzero;stroke:none"
         id="path152" />
      <g
         id="g154">
        <g
           id="g156"
           clip-path="url(#clipPath160)">
          <path
             d="M 408.25,175.691 H 3127"
             style="fill:none;stroke:#ffffff;stroke-width:14.9981;stroke-linecap:butt;stroke-linejoin:miter;stroke-miterlimit:22.9256;stroke-dasharray:none;stroke-opacity:1"
             id="path162" />
        </g>
      </g>
      <path
         d="M 431.43,288.922 344.242,650.801 65.8047,545.797 C 216.816,548.742 342.926,475.988 431.43,288.922"
         style="fill:#ed6229;fill-opacity:1;fill-rule:evenodd;stroke:none"
         id="path164" />
      <path
         d="m 389.242,189.547 -87.187,361.875 -278.4378,-105 C 174.629,449.363 300.738,376.609 389.242,189.547"
         style="fill:#fbc81b;fill-opacity:1;fill-rule:evenodd;stroke:none"
         id="path166" />
      <path
         d="m 389.242,189.547 -87.187,361.875 -278.4378,-105 C 174.629,449.363 300.738,376.609 389.242,189.547 Z"
         style="fill:none;stroke:#fbc81b;stroke-width:5.0003;stroke-linecap:butt;stroke-linejoin:miter;stroke-miterlimit:22.9256;stroke-dasharray:none;stroke-opacity:1"
         id="path168" />
      <path
         d="m 3241.93,179.496 -187.75,2.926 V 169.23 c 28.09,-0.546 173.7,4.665 187.19,-0.875 l 33.06,-2.05 c 7.45,-0.457 19.59,0.14 46.94,-2.321 10.33,-0.929 8.41,1.305 12.81,-4.058 7.71,-7.11 -26.08,-64.8088 -28.67,-79.0041 l 19.32,0.5976 c 4.81,7.0469 8.3,17.1914 16.77,19.8635 l 3.86,1.805 c 9.94,1.953 10.1,-1.055 16.28,3.238 -3.03,9.047 0.78,0.969 -9.02,7.207 l 11.14,16.668 c 4.21,0.308 8.66,0.422 12.79,0.758 l 9.14,1.789 c -0.56,8.558 1.38,3.488 -2.43,7.07 -8.11,7.645 1.32,-0.566 -6.34,2.648 3.26,3.391 5.01,5.153 8.48,10.106 7.39,10.539 11.1,16.93 44.4,14.062 9.16,-0.101 31.14,-1.683 27.47,10.825 -3.09,10.539 -24.01,6.918 -33.05,7.082 -44.03,0.785 -27.38,6.922 -48.66,25.074 5.39,2.019 17.96,0.168 10.71,9.199 -4.48,5.574 -11.85,2.531 -21.65,3.313 l -11.52,14.468 c 12.29,5.946 7.9,-4.582 9.45,9.051 -6.79,5.289 -11.94,3.426 -22.13,3.258 -19.79,20.574 -3.77,20.785 -37.18,21.457 7.86,-25.602 34.57,-48.457 33.64,-83.32 l -69.06,-2.09 -25.99,-5.555"
         style="fill:#ed1c24;fill-opacity:1;fill-rule:evenodd;stroke:none"
         id="path170" />
      <path
         d="m 3233.72,209.523 h 14.82 l 19.38,-24.472 0.56,-16.891 -19.94,-28.199 h -14.82 l 7.65,28.394 0.76,15.09 -8.41,26.078"
         style="fill:#ed1c24;fill-opacity:1;fill-rule:evenodd;stroke:none"
         id="path172" />
    </g>
  </g>
</svg>
