<?xml version="1.0" encoding="UTF-8"?>
<svg version="1.1" xmlns="http://www.w3.org/2000/svg" width="512" height="512">
<path d="M0 0 C0.87962402 -0.00705963 1.75924805 -0.01411926 2.66552734 -0.02139282 C39.74674251 -0.25135321 39.74674251 -0.25135321 56.5234375 3.203125 C58.02414795 3.50911621 58.02414795 3.50911621 59.55517578 3.82128906 C102.67098021 12.88649416 141.51714372 32.22646861 174.078125 61.98046875 C176.42495412 64.11360895 178.81378336 66.18944573 181.2109375 68.265625 C185.37006964 71.96747036 188.9510869 75.94239042 192.5234375 80.203125 C193.33425781 81.12609375 194.14507812 82.0490625 194.98046875 83 C223.14822932 115.21151996 241.16634139 154.3609587 249.5234375 196.203125 C249.76900391 197.36110596 249.76900391 197.36110596 250.01953125 198.54248047 C255.89795497 227.30910564 254.66153314 260.61003655 248.5234375 289.203125 C248.33088379 290.11336426 248.13833008 291.02360352 247.93994141 291.96142578 C240.90214033 324.26945997 227.33096311 355.66413561 207.5234375 382.203125 C206.8428125 383.11698975 206.8428125 383.11698975 206.1484375 384.04931641 C199.75785647 392.55269252 192.89451641 400.53818248 185.5234375 408.203125 C185.00491211 408.74356445 184.48638672 409.28400391 183.95214844 409.84082031 C176.87799342 417.17020642 169.62190032 423.99611524 161.5234375 430.203125 C160.99089355 430.61739746 160.45834961 431.03166992 159.90966797 431.45849609 C114.71848999 466.46319117 60.33004331 482.63986795 3.5234375 481.203125 C3.39718994 482.02006836 3.27094238 482.83701172 3.14086914 483.67871094 C2.96934326 484.75411133 2.79781738 485.82951172 2.62109375 486.9375 C2.45359619 488.00194336 2.28609863 489.06638672 2.11352539 490.16308594 C0.45768817 498.69369624 -4.313335 504.3668741 -11.4765625 509.203125 C-17.41905072 511.826272 -22.17997377 512.64097521 -28.63397217 512.60426331 C-29.52255519 512.61105998 -30.41113822 512.61785664 -31.326648 512.62485927 C-34.28657119 512.6437599 -37.24607806 512.64139905 -40.20605469 512.63891602 C-42.33552581 512.64789803 -44.46499205 512.6581073 -46.5944519 512.66944885 C-52.36735329 512.69590875 -58.14012119 512.70298066 -63.91307735 512.70489621 C-67.52339751 512.70703123 -71.13368391 512.71344084 -74.74399567 512.72138786 C-87.34953459 512.74912876 -99.95497844 512.76139504 -112.56054688 512.7590332 C-124.29402504 512.75723156 -136.02708912 512.78887795 -147.76046252 512.83626419 C-157.84822108 512.87554656 -167.9358446 512.89158254 -178.02367902 512.88966697 C-184.04247178 512.88890362 -190.06089644 512.89736856 -196.07961273 512.92920113 C-201.74333994 512.95833934 -207.40634954 512.95841795 -213.07010269 512.93665123 C-215.14205351 512.93352535 -217.21404976 512.94053317 -219.285923 512.9587326 C-231.53559406 513.05931686 -241.76938959 513.00368804 -251.44971848 504.46207523 C-253.05570907 502.80916619 -254.25392694 501.15448373 -255.4765625 499.203125 C-255.88648438 498.58179688 -256.29640625 497.96046875 -256.71875 497.3203125 C-260.59320604 490.29285085 -260.89506949 481.97830496 -259.4765625 474.203125 C-257.49056269 468.45289171 -254.55292854 463.4312662 -251.4765625 458.203125 C-250.35977999 456.24604496 -249.24536164 454.2876147 -248.1328125 452.328125 C-244.94496148 446.73998959 -241.71213924 441.17908622 -238.46875 435.62304688 C-235.26310561 430.12002401 -232.09081074 424.59785975 -228.9140625 419.078125 C-224.71648715 411.79521749 -220.50674952 404.51988623 -216.25439453 397.26879883 C-215.11531164 395.31601581 -213.98597348 393.35751432 -212.86669922 391.39331055 C-210.0456893 386.46362201 -207.14113417 381.64843624 -203.94987488 376.95184326 C-195.05935561 364.97699157 -195.05935561 364.97699157 -191.63134766 351.18212891 C-193.09637731 345.79612691 -195.73877311 341.32826154 -199.16943359 336.95703125 C-200.4765625 335.203125 -200.4765625 335.203125 -201.43603516 333.01171875 C-201.77940918 332.41488281 -202.1227832 331.81804687 -202.4765625 331.203125 C-204.80813742 330.85770649 -207.14164611 330.52518243 -209.4765625 330.203125 C-213.62415108 327.08648578 -214.9158846 323.04705485 -216.4140625 318.265625 C-216.79365112 317.08504517 -216.79365112 317.08504517 -217.1809082 315.88061523 C-237.12676911 252.20993123 -230.88127811 184.48906006 -200.14794922 125.30908203 C-193.41924871 112.80506102 -185.47689581 101.1727146 -176.4765625 90.203125 C-176.03940918 89.66445801 -175.60225586 89.12579102 -175.15185547 88.57080078 C-162.85012625 73.48261343 -149.1996633 59.70672391 -133.4765625 48.203125 C-132.34872404 47.35708308 -131.22112069 46.51072764 -130.09375 45.6640625 C-93.32987261 18.39103153 -46.08611801 0.24700296 0 0 Z " fill="#DAEDFE" transform="translate(259.4765625,-0.203125)"/>
<path d="M0 0 C0.87962402 -0.00705963 1.75924805 -0.01411926 2.66552734 -0.02139282 C39.74674251 -0.25135321 39.74674251 -0.25135321 56.5234375 3.203125 C58.02414795 3.50911621 58.02414795 3.50911621 59.55517578 3.82128906 C102.67098021 12.88649416 141.51714372 32.22646861 174.078125 61.98046875 C176.42495412 64.11360895 178.81378336 66.18944573 181.2109375 68.265625 C185.37006964 71.96747036 188.9510869 75.94239042 192.5234375 80.203125 C193.33425781 81.12609375 194.14507812 82.0490625 194.98046875 83 C223.14822932 115.21151996 241.16634139 154.3609587 249.5234375 196.203125 C249.76900391 197.36110596 249.76900391 197.36110596 250.01953125 198.54248047 C255.89795497 227.30910564 254.66153314 260.61003655 248.5234375 289.203125 C248.33088379 290.11336426 248.13833008 291.02360352 247.93994141 291.96142578 C240.90214033 324.26945997 227.33096311 355.66413561 207.5234375 382.203125 C206.8428125 383.11698975 206.8428125 383.11698975 206.1484375 384.04931641 C199.75785647 392.55269252 192.89451641 400.53818248 185.5234375 408.203125 C185.00491211 408.74356445 184.48638672 409.28400391 183.95214844 409.84082031 C176.87799342 417.17020642 169.62190032 423.99611524 161.5234375 430.203125 C160.99089355 430.61739746 160.45834961 431.03166992 159.90966797 431.45849609 C114.71848999 466.46319117 60.33004331 482.63986795 3.5234375 481.203125 C3.39718994 482.02006836 3.27094238 482.83701172 3.14086914 483.67871094 C2.96934326 484.75411133 2.79781738 485.82951172 2.62109375 486.9375 C2.45359619 488.00194336 2.28609863 489.06638672 2.11352539 490.16308594 C0.45768817 498.69369624 -4.313335 504.3668741 -11.4765625 509.203125 C-17.41905072 511.826272 -22.17997377 512.64097521 -28.63397217 512.60426331 C-29.52255519 512.61105998 -30.41113822 512.61785664 -31.326648 512.62485927 C-34.28657119 512.6437599 -37.24607806 512.64139905 -40.20605469 512.63891602 C-42.33552581 512.64789803 -44.46499205 512.6581073 -46.5944519 512.66944885 C-52.36735329 512.69590875 -58.14012119 512.70298066 -63.91307735 512.70489621 C-67.52339751 512.70703123 -71.13368391 512.71344084 -74.74399567 512.72138786 C-87.34953459 512.74912876 -99.95497844 512.76139504 -112.56054688 512.7590332 C-124.29402504 512.75723156 -136.02708912 512.78887795 -147.76046252 512.83626419 C-157.84822108 512.87554656 -167.9358446 512.89158254 -178.02367902 512.88966697 C-184.04247178 512.88890362 -190.06089644 512.89736856 -196.07961273 512.92920113 C-201.74333994 512.95833934 -207.40634954 512.95841795 -213.07010269 512.93665123 C-215.14205351 512.93352535 -217.21404976 512.94053317 -219.285923 512.9587326 C-231.53559406 513.05931686 -241.76938959 513.00368804 -251.44971848 504.46207523 C-253.05570907 502.80916619 -254.25392694 501.15448373 -255.4765625 499.203125 C-255.88648438 498.58179688 -256.29640625 497.96046875 -256.71875 497.3203125 C-260.59320604 490.29285085 -260.89506949 481.97830496 -259.4765625 474.203125 C-257.49056269 468.45289171 -254.55292854 463.4312662 -251.4765625 458.203125 C-250.35977999 456.24604496 -249.24536164 454.2876147 -248.1328125 452.328125 C-244.94496148 446.73998959 -241.71213924 441.17908622 -238.46875 435.62304688 C-235.26310561 430.12002401 -232.09081074 424.59785975 -228.9140625 419.078125 C-224.14977558 410.8119575 -219.3565466 402.56338638 -214.5390625 394.328125 C-206.7500356 381.01114783 -199.10976715 367.60981894 -191.4765625 354.203125 C-190.8165625 354.203125 -190.1565625 354.203125 -189.4765625 354.203125 C-189.24453125 353.55730469 -189.0125 352.91148437 -188.7734375 352.24609375 C-187.03666041 348.1709451 -184.89194367 344.37617428 -182.7265625 340.515625 C-182.28352783 339.7119751 -181.84049316 338.9083252 -181.3840332 338.08032227 C-178.9943973 333.77480133 -176.4693507 329.69199794 -173.6640625 325.640625 C-172.20895174 323.21955088 -171.43110967 321.923686 -171.609375 319.09765625 C-172.37558053 316.6801457 -173.38407594 314.4919739 -174.4765625 312.203125 C-193.2827447 265.15600925 -191.99786049 210.97541126 -172.6640625 164.390625 C-150.73610019 113.84752511 -111.11039873 74.77548233 -59.94604492 54.05615234 C-48.67937292 49.64389873 -37.32217785 46.5996502 -25.4765625 44.203125 C-24.72294434 44.03941406 -23.96932617 43.87570313 -23.19287109 43.70703125 C25.13582803 33.34552942 79.4589957 46.17138108 120.59814453 72.47973633 C147.21565351 90.04508104 169.72548181 113.48460233 185.5234375 141.203125 C185.88002441 141.82203613 186.23661133 142.44094727 186.60400391 143.07861328 C211.28608745 186.29098235 218.08702893 238.02900307 206.7734375 286.453125 C206.05220483 289.05010084 205.30602536 291.62536892 204.5234375 294.203125 C204.30236328 294.96415527 204.08128906 295.72518555 203.85351562 296.50927734 C200.61630009 307.53905846 196.47859096 317.95520323 191.5234375 328.328125 C190.79447266 329.85554321 190.79447266 329.85554321 190.05078125 331.41381836 C185.1847547 341.32834745 179.31365646 350.47094312 172.6484375 359.265625 C172.12870361 359.95261475 171.60896973 360.63960449 171.07348633 361.34741211 C166.82610361 366.90570734 162.37708715 372.16076425 157.5234375 377.203125 C157.00475098 377.75291016 156.48606445 378.30269531 155.95166016 378.86914062 C124.37250177 412.23106569 77.92339988 437.26477243 31.3828125 439.44140625 C30.01312476 439.47135189 28.64331331 439.49609255 27.2734375 439.515625 C26.57992188 439.54462891 25.88640625 439.57363281 25.171875 439.60351562 C21.76337931 439.64595858 19.86674381 439.45170724 17.07421875 437.4296875 C15.17615333 434.70450542 14.87757902 432.47319654 15.10546875 429.171875 C15.5234375 427.203125 15.5234375 427.203125 17.1484375 424.265625 C21.6132766 421.53711222 25.16930663 421.69675844 30.33203125 421.4921875 C70.62708364 419.34955238 109.68844603 398.19302029 138.5234375 371.203125 C139.4721875 370.32011719 140.4209375 369.43710937 141.3984375 368.52734375 C173.65308352 337.81643755 192.60038238 291.39701669 193.76171875 247.19140625 C194.44711987 199.66099998 179.73673361 156.39617395 148.5234375 120.203125 C148.09804688 119.70925293 147.67265625 119.21538086 147.234375 118.70654297 C140.90871783 111.42140198 134.16781566 105.11491745 126.5234375 99.203125 C125.585 98.42582031 124.6465625 97.64851563 123.6796875 96.84765625 C108.36122751 84.43101793 90.99039643 75.86840505 72.5234375 69.203125 C71.53102051 68.8306665 71.53102051 68.8306665 70.51855469 68.45068359 C40.89323284 57.33541073 7.38425821 56.19950641 -23.4765625 62.203125 C-24.20166016 62.33702637 -24.92675781 62.47092773 -25.67382812 62.60888672 C-51.7966387 67.54731906 -77.70635486 79.67545351 -98.4765625 96.203125 C-99.00862305 96.62384277 -99.54068359 97.04456055 -100.08886719 97.47802734 C-138.88593029 128.40642306 -163.34379523 172.69582129 -168.94140625 222.04296875 C-170.43605984 237.38594487 -170.28946331 253.02735149 -167.4765625 268.203125 C-167.24710937 269.47414063 -167.01765625 270.74515625 -166.78125 272.0546875 C-165.50544482 278.75602206 -163.97528602 285.32376764 -162.10546875 291.8828125 C-161.36034017 294.63192041 -160.85788358 297.38134901 -160.4765625 300.203125 C-159.8165625 300.203125 -159.1565625 300.203125 -158.4765625 300.203125 C-158.20972656 299.47996094 -157.94289063 298.75679688 -157.66796875 298.01171875 C-153.51901599 288.23107274 -147.02713383 282.33600694 -137.6015625 277.828125 C-128.63749685 276.03531187 -120.36705607 276.86701369 -112.38671875 281.38671875 C-103.15174614 287.64381151 -98.12960679 298.28206636 -92.9140625 307.828125 C-88.21548332 316.32236476 -83.44945548 324.76693701 -78.5390625 333.140625 C-73.67710621 341.43687431 -68.84029394 349.746558 -64.0390625 358.078125 C-63.41652588 359.15827881 -62.79398926 360.23843262 -62.15258789 361.35131836 C-60.89079424 363.54108834 -59.62915716 365.73094855 -58.36767578 367.92089844 C-55.23976102 373.34972442 -52.10797802 378.77631781 -48.9765625 384.203125 C-47.72654371 386.36978083 -46.47654372 388.5364475 -45.2265625 390.703125 C-44.6078125 391.775625 -43.9890625 392.848125 -43.3515625 393.953125 C-37.7265625 403.70312499 -37.7265625 403.70312499 -35.84960938 406.95654297 C-34.6061574 409.11183811 -33.36266814 411.26711173 -32.11914062 413.42236328 C-29.23193375 418.42650174 -26.3450582 423.4308302 -23.45959473 428.43597412 C-22.45037146 430.18653741 -21.44102414 431.93702911 -20.43164062 433.6875 C-19.1748859 435.86704665 -17.91835664 438.04672332 -16.66210938 440.2265625 C-16.08525391 441.226875 -15.50839844 442.2271875 -14.9140625 443.2578125 C-14.07488281 444.71525879 -14.07488281 444.71525879 -13.21875 446.20214844 C-11.9853847 448.32666165 -10.73930346 450.44381631 -9.484375 452.55566406 C-8.84242188 453.6381543 -8.20046875 454.72064453 -7.5390625 455.8359375 C-6.95253906 456.8170752 -6.36601562 457.79821289 -5.76171875 458.80908203 C-4.4765625 461.203125 -4.4765625 461.203125 -4.4765625 463.203125 C0.50011728 463.10801443 5.47639717 463.00162331 10.45263672 462.88574219 C12.1377948 462.84797416 13.82301935 462.81304151 15.50830078 462.78125 C26.64862153 462.56867381 37.49772407 461.86319368 48.5234375 460.203125 C49.42513672 460.06825684 50.32683594 459.93338867 51.25585938 459.79443359 C82.45079102 454.76944357 113.82399786 441.59551176 139.5234375 423.203125 C140.48378906 422.51734375 141.44414062 421.8315625 142.43359375 421.125 C158.5945821 409.28638403 173.1384677 395.98746588 185.5234375 380.203125 C186.30203125 379.25308594 187.080625 378.30304688 187.8828125 377.32421875 C203.95758425 357.28194761 214.94189088 334.26416546 223.5234375 310.203125 C223.77222656 309.5234668 224.02101563 308.84380859 224.27734375 308.14355469 C239.62486852 265.80631136 238.32429582 215.68454037 224.5234375 173.203125 C224.26191895 172.39762207 224.00040039 171.59211914 223.73095703 170.76220703 C215.43804127 145.8123631 202.9751667 122.71771602 186.5234375 102.203125 C185.33427734 100.70845703 185.33427734 100.70845703 184.12109375 99.18359375 C171.69788526 83.88140135 157.5891444 70.59566776 141.5234375 59.203125 C140.90823242 58.7592041 140.29302734 58.3152832 139.65917969 57.85791016 C93.99267641 25.08853925 35.32113118 12.32788407 -20.0390625 19.953125 C-21.18366943 20.10998779 -22.32827637 20.26685059 -23.50756836 20.4284668 C-31.72217765 21.67746121 -39.52667739 23.82144839 -47.4765625 26.203125 C-48.87674338 26.57720206 -50.27871193 26.94476552 -51.68359375 27.30078125 C-87.76351509 36.95597147 -118.58538273 57.90269108 -145.4765625 83.203125 C-146.54003906 84.18539062 -146.54003906 84.18539062 -147.625 85.1875 C-175.60938443 111.91544268 -194.686609 150.28829951 -204.2265625 187.265625 C-204.41331543 187.98322998 -204.60006836 188.70083496 -204.79248047 189.44018555 C-208.72879961 205.6328515 -210.02532942 221.57780159 -209.9140625 238.203125 C-209.91068878 239.18558197 -209.90731506 240.16803894 -209.90383911 241.18026733 C-209.77470168 267.22667927 -205.77358365 290.96229117 -197.29296875 315.6484375 C-196.19989791 319.06886013 -196.02250167 321.6355042 -196.4765625 325.203125 C-198.9140625 328.078125 -198.9140625 328.078125 -201.4765625 330.203125 C-201.8065625 330.533125 -202.1365625 330.863125 -202.4765625 331.203125 C-206.04934823 331.00089185 -208.62758501 330.84795905 -211.5234375 328.6484375 C-214.06933813 325.46096991 -215.21144191 322.10378467 -216.4140625 318.265625 C-216.79365112 317.08504517 -216.79365112 317.08504517 -217.1809082 315.88061523 C-237.12676911 252.20993123 -230.88127811 184.48906006 -200.14794922 125.30908203 C-193.41924871 112.80506102 -185.47689581 101.1727146 -176.4765625 90.203125 C-176.03940918 89.66445801 -175.60225586 89.12579102 -175.15185547 88.57080078 C-162.85012625 73.48261343 -149.1996633 59.70672391 -133.4765625 48.203125 C-132.34872404 47.35708308 -131.22112069 46.51072764 -130.09375 45.6640625 C-93.32987261 18.39103153 -46.08611801 0.24700296 0 0 Z " fill="#020101" transform="translate(259.4765625,-0.203125)"/>
<path d="M0 0 C1.4019795 0.18763783 2.80434127 0.37243692 4.20703125 0.5546875 C16.88080579 2.30610625 28.88636161 5.95612962 41 10 C41.73992187 10.24621094 42.47984375 10.49242187 43.2421875 10.74609375 C66.67690404 18.69234821 87.58394817 30.7782598 107 46 C107.82886719 46.62390625 108.65773438 47.2478125 109.51171875 47.890625 C124.09363395 59.23459578 137.22927944 73.00653813 148 88 C148.76183594 89.04027344 149.52367187 90.08054687 150.30859375 91.15234375 C183.27575247 137.3749285 199.08601332 196.04135404 190.34057617 252.51904297 C189.917173 255.01757389 189.4636005 257.50864687 189 260 C188.86078125 260.79970215 188.7215625 261.5994043 188.578125 262.42333984 C182.25004656 298.43625846 166.00698063 332.68604556 143 361 C142.5064502 361.60779297 142.01290039 362.21558594 141.50439453 362.84179688 C131.41834206 375.14330181 120.54392003 386.19135142 108 396 C107.05125 396.77730469 106.1025 397.55460937 105.125 398.35546875 C84.73160076 414.71700972 60.93410519 426.28759179 36.14794922 434.30224609 C34.29082047 434.90552797 32.44321883 435.53799211 30.59765625 436.17578125 C23.95722839 438.3892572 17.23629906 439.8557177 10.375 441.1875 C9.08638062 441.43826294 9.08638062 441.43826294 7.77172852 441.6940918 C-4.89121899 444.03738297 -17.35722233 444.12761584 -30.1875 444.0625 C-31.91992058 444.05747379 -33.65234257 444.05291287 -35.38476562 444.04882812 C-39.58987928 444.03791402 -43.79492366 444.02071152 -48 444 C-48.3623877 443.35562988 -48.72477539 442.71125977 -49.09814453 442.04736328 C-50.77231363 439.07242391 -52.44864494 436.09870811 -54.125 433.125 C-54.69476563 432.11179687 -55.26453125 431.09859375 -55.8515625 430.0546875 C-59.10586979 424.28568821 -62.43044311 418.58121211 -65.92919922 412.95654297 C-67 411 -67 411 -67 409 C-65.82566406 409.14308594 -64.65132812 409.28617187 -63.44140625 409.43359375 C-56.62350105 410.19113877 -49.78092845 410.60717085 -42.9375 411.0625 C-41.58136822 411.15411957 -40.22524831 411.24591512 -38.86914062 411.33789062 C-35.57953934 411.56031918 -32.28982939 411.7809756 -29 412 C-28.67 411.34 -28.34 410.68 -28 410 C-27.566875 411.670625 -27.566875 411.670625 -27.125 413.375 C-26.30758671 417.00291092 -26.30758671 417.00291092 -24 419 C-5.6971896 421.1299617 13.87690235 416.16511065 31 410 C31.7852002 409.72704102 32.57040039 409.45408203 33.37939453 409.17285156 C53.95661676 401.98690284 72.73643248 392.34863011 90 379 C90.56589844 378.56252441 91.13179688 378.12504883 91.71484375 377.67431641 C107.19025128 365.51573034 120.93105181 351.26590477 132 335 C132.64243652 334.06800781 132.64243652 334.06800781 133.29785156 333.1171875 C162.47633504 290.30117798 173.68845668 235.74268292 164.55224609 184.76171875 C158.03092808 152.14936272 144.03868959 121.74491596 123 96 C122.54399414 95.43571289 122.08798828 94.87142578 121.61816406 94.29003906 C89.34475599 54.57403311 41.97954685 29.99411885 -8.58203125 23.54296875 C-12.39073949 23.21042729 -16.17977673 23.07246422 -20 23 C-21.07459473 22.97421875 -22.14918945 22.9484375 -23.25634766 22.921875 C-38.80950568 22.59073657 -53.77100073 22.6917547 -69 26 C-69.82193848 26.16628906 -70.64387695 26.33257812 -71.49072266 26.50390625 C-91.06335177 30.48703032 -109.50272183 37.37512789 -127 47 C-127.62036133 47.34111816 -128.24072266 47.68223633 -128.87988281 48.03369141 C-144.02207901 56.48670629 -157.5440766 66.97006577 -170 79 C-170.9827632 79.91960193 -171.9658395 80.83886937 -172.94921875 81.7578125 C-184.93731817 93.14768379 -194.94230353 106.57842825 -203 121 C-203.62986816 122.1125415 -203.62986816 122.1125415 -204.27246094 123.24755859 C-225.23841019 160.60385071 -235.79123158 205.20309433 -228.35498047 247.93115234 C-227.94497688 250.32067808 -227.58598003 252.71622509 -227.22265625 255.11328125 C-225.39636218 266.58427798 -222.56862495 277.35723184 -218.68359375 288.30078125 C-218.41409912 289.0906543 -218.14460449 289.88052734 -217.86694336 290.69433594 C-217.04961442 293.01474043 -217.04961442 293.01474043 -215.86938477 295.14160156 C-214.69931467 297.58702299 -214.11947601 299.27984934 -214 302 C-215.73491286 306.7451033 -218.35527599 310.88598598 -221.0625 315.125 C-221.76781145 316.27560921 -222.4703128 317.42794593 -223.16992188 318.58203125 C-224.50650764 320.77194626 -225.85443968 322.95498942 -227.21533203 325.12988281 C-229.23323909 328.37509696 -231.13829684 331.66344109 -233 335 C-236.39739364 331.84579457 -238.09045719 328.29757458 -240.125 324.1875 C-240.48464844 323.48818359 -240.84429687 322.78886719 -241.21484375 322.06835938 C-243.20297625 318.08837128 -244.76316395 314.5201852 -245 310 C-243.66666667 308.66666667 -242.33333333 307.33333333 -241 306 C-240.42571584 300.13782661 -241.87563831 295.50914829 -243.75 290.0625 C-244.30665274 288.3630459 -244.85999636 286.66250461 -245.41015625 284.9609375 C-245.68230957 284.12014648 -245.95446289 283.27935547 -246.23486328 282.41308594 C-252.4532577 262.80153188 -254.52856117 242.65707797 -254.39111328 222.15795898 C-254.37494105 219.3020908 -254.39113528 216.4476246 -254.41015625 213.59179688 C-254.42932304 197.56965271 -252.49853568 182.17188156 -248.3125 166.6875 C-247.92904419 165.25676147 -247.92904419 165.25676147 -247.5378418 163.79711914 C-240.6074224 138.67615633 -229.99250072 115.34067671 -215 94 C-214.52981445 93.32775391 -214.05962891 92.65550781 -213.57519531 91.96289062 C-206.19023923 81.51295277 -197.91269181 72.16322628 -189 63 C-188.24847656 62.20851563 -187.49695313 61.41703125 -186.72265625 60.6015625 C-156.93552362 29.77888538 -112.98298234 8.21180065 -71 1 C-70.23010742 0.86464844 -69.46021484 0.72929687 -68.66699219 0.58984375 C-46.16954187 -3.23584294 -22.55315147 -3.66227948 0 0 Z " fill="#FC6B78" transform="translate(303,19)"/>
<path d="M0 0 C7.28735506 3.00420998 9.8204701 7.87695408 13.5 14.625 C14.73036747 16.80734877 15.96083976 18.98963844 17.19140625 21.171875 C17.81934082 22.30044922 18.44727539 23.42902344 19.09423828 24.59179688 C22.14866812 30.05424122 25.29860499 35.46081696 28.4375 40.875 C29.69733714 43.05947928 30.95644806 45.24437754 32.21484375 47.4296875 C35.97355381 53.95486243 39.7364175 60.4776345 43.5 67 C44.75001879 69.16665583 46.00001878 71.3333225 47.25 73.5 C48.178125 75.10875 48.178125 75.10875 49.125 76.75 C61 97.33333333 72.875 117.91666667 84.75 138.5 C85.67993774 140.11092529 85.67993774 140.11092529 86.62866211 141.75439453 C87.86871393 143.90511194 89.1065358 146.05711674 90.34204102 148.21044922 C93.25299441 153.27762169 96.18433828 158.32898608 99.19747925 163.33599854 C100.61364757 165.69239697 102.016993 168.05631065 103.41943359 170.42089844 C104.41045688 172.07973358 105.41983744 173.72755833 106.4296875 175.375 C109.88672889 181.21851512 112.0162531 185.17108715 111 192 C108.72172872 196.47216213 106.52053676 198.87765594 102 201 C99.08254431 201.28610646 96.38168645 201.40962186 93.46669006 201.38768005 C92.60910534 201.39306559 91.75152061 201.39845113 90.86794847 201.40399987 C87.99523426 201.41830376 85.12297926 201.41116972 82.25024414 201.40405273 C80.19029876 201.40975502 78.13035654 201.41671873 76.07041931 201.42485046 C70.47540418 201.44281245 64.88054562 201.44160776 59.2855103 201.43590808 C54.61588166 201.43282066 49.94628329 201.4389037 45.27665895 201.44494683 C34.26131806 201.4590004 23.2460547 201.45742378 12.23071289 201.44604492 C0.86364591 201.43456226 -10.50318518 201.44864008 -21.87022108 201.4754414 C-31.62746435 201.49758647 -41.3846335 201.50423847 -51.14190012 201.49836498 C-56.97042492 201.49499144 -62.79879848 201.49743699 -68.62730217 201.51461601 C-74.10782862 201.530064 -79.58800516 201.52615326 -85.06851768 201.50731087 C-87.08008507 201.50361908 -89.09167825 201.50675057 -91.10322189 201.51719666 C-93.84912183 201.53036778 -96.59385677 201.51889353 -99.33970642 201.50120544 C-100.53402366 201.51561295 -100.53402366 201.51561295 -101.75246853 201.53031152 C-106.93721916 201.4615834 -109.88684405 200.42420746 -114 197 C-116.96359093 192.5546136 -117.37082725 189.27394855 -117 184 C-115.75341797 181.01586914 -115.75341797 181.01586914 -113.9921875 178.03515625 C-113.34241943 176.91802246 -112.69265137 175.80088867 -112.02319336 174.64990234 C-111.30737638 173.45395341 -110.59130547 172.25815642 -109.875 171.0625 C-109.13993566 169.81024103 -108.40631239 168.55713514 -107.67407227 167.30322266 C-106.17992241 164.74987663 -104.67759342 162.2016519 -103.16748047 159.65771484 C-100.62949696 155.38101467 -98.12929834 151.08263456 -95.62963867 146.78344727 C-93.92165805 143.84777086 -92.20742577 140.91581585 -90.4921875 137.984375 C-84.91570844 128.44177067 -79.40788509 118.85942207 -73.89111328 109.28222656 C-70.76319852 103.85340058 -67.63141552 98.42680719 -64.5 93 C-63.24998121 90.83334417 -61.99998122 88.6666775 -60.75 86.5 C-57 80 -57 80 -53.25 73.5 C-52.63116943 72.42733887 -52.01233887 71.35467773 -51.37475586 70.24951172 C-50.12564482 68.08442929 -48.87645871 65.91939018 -47.62719727 63.75439453 C-43.85614232 57.2188167 -40.08774462 50.68171788 -36.32202148 44.14306641 C-34.45815566 40.91082026 -32.58850637 37.68196621 -30.71875 34.453125 C-28.16767826 30.04256954 -25.65240988 25.61372047 -23.15625 21.171875 C-21.91668946 18.98957038 -20.67710695 16.80727825 -19.4375 14.625 C-18.87796631 13.61421387 -18.31843262 12.60342773 -17.74194336 11.56201172 C-13.39678652 3.96076883 -9.61464706 -1.34942415 0 0 Z " fill="#FDE572" transform="translate(134,294)"/>
<path d="M0 0 C1.04365723 0.16943115 1.04365723 0.16943115 2.10839844 0.34228516 C16.42701832 2.68687285 29.57100126 7.61724729 43 13 C44.39436279 13.5576001 44.39436279 13.5576001 45.81689453 14.12646484 C46.53731934 14.41473145 47.25774414 14.70299805 48 15 C48 15.99 48 16.98 48 18 C47.24460937 17.9278125 46.48921875 17.855625 45.7109375 17.78125 C24.60157506 16.00153794 4.26616968 17.47336813 -16.68457031 20.37133789 C-22.76644055 21.1579961 -22.76644055 21.1579961 -25.125 19.5625 C-25.74375 19.046875 -26.3625 18.53125 -27 18 C-30.96268075 17.50466491 -33.07601619 17.34348519 -36.375 19.6875 C-38.20086336 21.86801244 -38.20086336 21.86801244 -38.19140625 24.46875 C-39 27 -39 27 -41.81640625 28.51953125 C-43.05261719 28.94621094 -44.28882813 29.37289062 -45.5625 29.8125 C-46.94093078 30.31713966 -48.31717821 30.82777531 -49.69140625 31.34375 C-50.40441895 31.61058594 -51.11743164 31.87742188 -51.85205078 32.15234375 C-73.17048543 40.56534728 -92.08820288 53.89290641 -108.56787109 69.63525391 C-109.94699053 70.94948467 -111.34235213 72.24660661 -112.73828125 73.54296875 C-124.4388028 84.73550817 -134.0148252 97.94883405 -142 112 C-142.96292969 113.64742187 -142.96292969 113.64742187 -143.9453125 115.328125 C-153.11682967 131.43178619 -159.38467102 148.86276299 -163 167 C-163.37161432 168.50084236 -163.74597812 170.0010112 -164.125 171.5 C-167.32349614 186.41688023 -167.52828553 201.81501264 -168 217 C-168.7734375 217.09796875 -169.546875 217.1959375 -170.34375 217.296875 C-179.41159247 218.59869397 -186.13233442 220.80853533 -193 227 C-194.50068729 229.2388632 -195.86986385 231.41267271 -197.1875 233.75 C-198.40311766 235.88820507 -199.6507056 237.93882622 -201 240 C-201.66 240 -202.32 240 -203 240 C-205.91647087 231.08773875 -208.16375345 222.19216279 -210 213 C-210.1959375 212.09121094 -210.391875 211.18242187 -210.59375 210.24609375 C-219.83304181 166.83500945 -208.10379435 118.77478244 -184.37109375 81.84375 C-158.02019229 42.00307763 -117.41165247 11.96321877 -70.36328125 1.71875 C-47.41674826 -2.93182161 -23.11785107 -4.20988235 0 0 Z " fill="#ECF5FD" transform="translate(302,60)"/>
<path d="M0 0 C1.4019795 0.18763783 2.80434127 0.37243692 4.20703125 0.5546875 C19.62320549 2.68833682 34.50700622 7.40740946 49 13 C49 13.33 49 13.66 49 14 C48.33395752 13.93941406 47.66791504 13.87882812 46.98168945 13.81640625 C19.78773682 11.40924728 -6.09918784 10.91921525 -33 16 C-34.49847835 16.26556486 -35.99715293 16.53002683 -37.49609375 16.79296875 C-44.6442139 18.11723666 -51.49114458 19.93922339 -58.390625 22.23046875 C-61 23 -61 23 -64 23 C-64 23.66 -64 24.32 -64 25 C-64.57218262 25.12004395 -65.14436523 25.24008789 -65.73388672 25.36376953 C-119.85411338 36.8490562 -165.75581338 65.07036661 -197.1953125 111.22265625 C-199.23752976 114.42653961 -201.14759136 117.68458049 -203 121 C-203.62986816 122.1125415 -203.62986816 122.1125415 -204.27246094 123.24755859 C-225.23841019 160.60385071 -235.79123158 205.20309433 -228.35498047 247.93115234 C-227.94497688 250.32067808 -227.58598003 252.71622509 -227.22265625 255.11328125 C-225.39636218 266.58427798 -222.56862495 277.35723184 -218.68359375 288.30078125 C-218.41409912 289.0906543 -218.14460449 289.88052734 -217.86694336 290.69433594 C-217.04961442 293.01474043 -217.04961442 293.01474043 -215.86938477 295.14160156 C-214.69931467 297.58702299 -214.11947601 299.27984934 -214 302 C-215.73491286 306.7451033 -218.35527599 310.88598598 -221.0625 315.125 C-221.76781145 316.27560921 -222.4703128 317.42794593 -223.16992188 318.58203125 C-224.50650764 320.77194626 -225.85443968 322.95498942 -227.21533203 325.12988281 C-229.23323909 328.37509696 -231.13829684 331.66344109 -233 335 C-236.39739364 331.84579457 -238.09045719 328.29757458 -240.125 324.1875 C-240.48464844 323.48818359 -240.84429687 322.78886719 -241.21484375 322.06835938 C-243.20297625 318.08837128 -244.76316395 314.5201852 -245 310 C-243.66666667 308.66666667 -242.33333333 307.33333333 -241 306 C-240.42571584 300.13782661 -241.87563831 295.50914829 -243.75 290.0625 C-244.30665274 288.3630459 -244.85999636 286.66250461 -245.41015625 284.9609375 C-245.68230957 284.12014648 -245.95446289 283.27935547 -246.23486328 282.41308594 C-252.4532577 262.80153188 -254.52856117 242.65707797 -254.39111328 222.15795898 C-254.37494105 219.3020908 -254.39113528 216.4476246 -254.41015625 213.59179688 C-254.42932304 197.56965271 -252.49853568 182.17188156 -248.3125 166.6875 C-247.92904419 165.25676147 -247.92904419 165.25676147 -247.5378418 163.79711914 C-240.6074224 138.67615633 -229.99250072 115.34067671 -215 94 C-214.52981445 93.32775391 -214.05962891 92.65550781 -213.57519531 91.96289062 C-206.19023923 81.51295277 -197.91269181 72.16322628 -189 63 C-188.24847656 62.20851563 -187.49695313 61.41703125 -186.72265625 60.6015625 C-156.93552362 29.77888538 -112.98298234 8.21180065 -71 1 C-70.23010742 0.86464844 -69.46021484 0.72929687 -68.66699219 0.58984375 C-46.16954187 -3.23584294 -22.55315147 -3.66227948 0 0 Z " fill="#FC8A93" transform="translate(303,19)"/>
<path d="M0 0 C6.75824744 2.4136598 9.22861023 6.88959742 12.8125 12.9296875 C14.2338005 16.60449735 13.90825462 18.20607723 13 22 C11.74755859 24.65527344 11.74755859 24.65527344 10.1484375 27.359375 C9.55216553 28.37918457 8.95589355 29.39899414 8.34155273 30.44970703 C7.69259033 31.53880371 7.04362793 32.62790039 6.375 33.75 C5.69571783 34.90551279 5.01743127 36.06161137 4.34008789 37.21826172 C2.93218406 39.62074891 1.52003309 42.02066241 0.10498047 44.41894531 C-3.16057039 49.96272213 -6.35663803 55.54658088 -9.5625 61.125 C-14.92181754 70.42339504 -20.31858482 79.69937565 -25.73291016 88.96582031 C-31.89919054 99.52620282 -38.0049595 110.12126766 -44.10888672 120.71777344 C-46.61370572 125.065151 -49.1210589 129.41106389 -51.62866211 133.75683594 C-52.87315302 135.91362879 -54.11745734 138.07052931 -55.36157227 140.22753906 C-59.21481574 146.9080413 -63.07260238 153.58589753 -66.93310547 160.26220703 C-68.82417944 163.53699366 -70.70948663 166.81504112 -72.59375 170.09375 C-74.67421343 173.71255165 -76.77447489 177.31746332 -78.90625 180.90625 C-79.7292253 182.31246568 -80.55214705 183.71871272 -81.375 185.125 C-81.73835449 185.72135254 -82.10170898 186.31770508 -82.47607422 186.93212891 C-85.03016307 191.34258576 -85.61770496 195.00831904 -86 200 C-89.89558088 200.11643304 -93.79071258 200.18732909 -97.6875 200.25 C-99.34168945 200.30027344 -99.34168945 200.30027344 -101.02929688 200.3515625 C-109.23222485 200.45069154 -109.23222485 200.45069154 -113.1875 198.12890625 C-117.00597131 193.64384835 -117.36121897 189.79439516 -117 184 C-115.75341797 181.01586914 -115.75341797 181.01586914 -113.9921875 178.03515625 C-113.34241943 176.91802246 -112.69265137 175.80088867 -112.02319336 174.64990234 C-111.30737638 173.45395341 -110.59130547 172.25815642 -109.875 171.0625 C-109.13993566 169.81024103 -108.40631239 168.55713514 -107.67407227 167.30322266 C-106.17992241 164.74987663 -104.67759342 162.2016519 -103.16748047 159.65771484 C-100.62949696 155.38101467 -98.12929834 151.08263456 -95.62963867 146.78344727 C-93.92165805 143.84777086 -92.20742577 140.91581585 -90.4921875 137.984375 C-84.91570844 128.44177067 -79.40788509 118.85942207 -73.89111328 109.28222656 C-70.76319852 103.85340058 -67.63141552 98.42680719 -64.5 93 C-63.24998121 90.83334417 -61.99998122 88.6666775 -60.75 86.5 C-57 80 -57 80 -53.25 73.5 C-52.63116943 72.42733887 -52.01233887 71.35467773 -51.37475586 70.24951172 C-50.12564482 68.08442929 -48.87645871 65.91939018 -47.62719727 63.75439453 C-43.85614232 57.2188167 -40.08774462 50.68171788 -36.32202148 44.14306641 C-34.45815566 40.91082026 -32.58850637 37.68196621 -30.71875 34.453125 C-28.16767826 30.04256954 -25.65240988 25.61372047 -23.15625 21.171875 C-21.91668946 18.98957038 -20.67710695 16.80727825 -19.4375 14.625 C-18.87796631 13.61421387 -18.31843262 12.60342773 -17.74194336 11.56201172 C-13.39678652 3.96076883 -9.61464706 -1.34942415 0 0 Z " fill="#FDEEA4" transform="translate(134,294)"/>
<path d="M0 0 C2.67753601 1.77494812 2.67753601 1.77494812 5 5 C5.75809935 9.06880106 5.68987529 13.0968567 5.65942383 17.22583008 C5.66990753 18.46526367 5.68039124 19.70469727 5.69119263 20.98168945 C5.71502953 24.37223059 5.71687354 27.76143926 5.70889878 31.15196443 C5.70577133 34.69813994 5.73081495 38.24411458 5.75285339 41.79020691 C5.79029083 48.50140237 5.80244118 55.2123952 5.8054778 61.92368478 C5.81016898 69.56583267 5.84309412 77.20777763 5.87837565 84.84983599 C5.95030412 100.5665427 5.98682591 116.28312758 6 132 C6.82564453 132.39396973 7.65128906 132.78793945 8.50195312 133.19384766 C9.58412109 133.72026855 10.66628906 134.24668945 11.78125 134.7890625 C12.85439453 135.30678223 13.92753906 135.82450195 15.03320312 136.35791016 C21.60499195 139.99532388 25.30900839 146.11422736 28 153 C28 153.66 28 154.32 28 155 C28.81574997 154.98889694 29.63149994 154.97779388 30.4719696 154.96635437 C38.16690232 154.86608888 45.86151748 154.79000355 53.5569334 154.74093914 C57.51309303 154.71486618 61.46871205 154.67951191 65.42456055 154.62280273 C69.24362802 154.56839821 73.0621762 154.53856214 76.88160133 154.52561378 C78.33729031 154.51638881 79.79295146 154.49837382 81.24841881 154.47134972 C83.29082579 154.43494257 85.33109903 154.43005884 87.3737793 154.43237305 C88.53515915 154.42126999 89.696539 154.41016693 90.89311218 154.39872742 C94.960716 155.18592631 96.44686849 156.80768101 99 160 C99.7446324 163.97137281 99.37266878 165.44099683 97.125 168.8125 C94.63780464 171.37284817 93.83622658 171.95114528 90.2918396 172.15821838 C89.14156281 172.17376266 87.99128601 172.18930695 86.80615234 172.20532227 C85.50495453 172.22526749 84.20375671 172.24521271 82.86312866 172.26576233 C81.4373995 172.28274673 80.01166907 172.29962553 78.5859375 172.31640625 C77.13147387 172.33697521 75.67701623 172.35797166 74.2225647 172.37937927 C70.39213912 172.43460604 66.56165955 172.4840126 62.73114014 172.53222656 C58.8233153 172.5824372 54.915569 172.63812554 51.0078125 172.69335938 C43.33860815 172.80094833 35.66933855 172.90239162 28 173 C27.67749268 173.67691895 27.35498535 174.35383789 27.02270508 175.05126953 C26.58853271 175.94442871 26.15436035 176.83758789 25.70703125 177.7578125 C25.28139893 178.64098145 24.8557666 179.52415039 24.41723633 180.43408203 C20.65539156 187.24493276 15.06410877 191.10153063 8 194 C6.576875 194.61875 6.576875 194.61875 5.125 195.25 C-3.6787483 197.36289959 -12.61487931 196.21019311 -20.41796875 191.55859375 C-27.95193709 186.11949768 -34.03656137 178.23302959 -36 169 C-37.05607622 159.59961786 -35.66627009 152.00812495 -30.046875 144.33203125 C-25.4458788 138.88644658 -20.66972951 134.67917253 -14 132 C-13.34 132 -12.68 132 -12 132 C-12.00460896 131.35008496 -12.00921793 130.70016993 -12.01396656 130.03056049 C-12.1244014 114.21470209 -12.2071347 98.39897784 -12.25906086 82.58282948 C-12.28483964 74.93422917 -12.31998351 67.28588626 -12.37719727 59.63745117 C-12.42704274 52.97084163 -12.4592934 46.3044185 -12.47044247 39.63762778 C-12.47695948 36.10769459 -12.49226815 32.5782947 -12.52865028 29.04853249 C-12.56894146 25.10753022 -12.56994867 21.16704907 -12.56762695 17.22583008 C-12.58560333 16.05626266 -12.60357971 14.88669525 -12.62210083 13.6816864 C-12.57170255 5.7958515 -12.57170255 5.7958515 -9.68327332 1.77494812 C-6.11582878 -0.58486701 -4.19763607 -0.74957787 0 0 Z " fill="#020202" transform="translate(275,77)"/>
<path d="M0 0 C4.08187671 0.57289498 5.68033728 1.61783728 8.5625 4.5 C9.75638319 6.88776637 9.70178881 8.38842283 9.72363281 11.05395508 C9.73324036 11.99866165 9.7428479 12.94336823 9.75274658 13.91670227 C9.75699646 14.94063583 9.76124634 15.9645694 9.765625 17.01953125 C9.77132507 18.07025314 9.77702515 19.12097504 9.78289795 20.20353699 C9.79235652 22.43035879 9.79888532 24.65719464 9.80273438 26.8840332 C9.81243071 30.28817252 9.8434427 33.69170584 9.875 37.09570312 C9.88153086 39.25780891 9.88678101 41.41991902 9.890625 43.58203125 C9.9029718 44.59989212 9.9153186 45.61775299 9.92803955 46.66645813 C9.89997519 55.58918191 9.89997519 55.58918191 6.5625 59.5 C3.43307535 61.06471233 -0.04832223 61.19701958 -3.4375 60.5 C-5.93140217 58.47369541 -7.27840389 57.26057196 -7.94543457 54.07177734 C-7.94861694 53.1689502 -7.95179932 52.26612305 -7.95507812 51.3359375 C-7.96768677 50.30807129 -7.98029541 49.28020508 -7.99328613 48.22119141 C-7.98518921 47.11694824 -7.97709229 46.01270508 -7.96875 44.875 C-7.9725769 43.73595215 -7.97640381 42.5969043 -7.98034668 41.42333984 C-7.98306774 39.01594153 -7.9756931 36.60851374 -7.95898438 34.20117188 C-7.93757925 30.51365318 -7.95878132 26.82808301 -7.984375 23.140625 C-7.98173176 20.80207903 -7.97660687 18.46353427 -7.96875 16.125 C-7.97684692 15.02075684 -7.98494385 13.91651367 -7.99328613 12.77880859 C-7.98067749 11.75094238 -7.96806885 10.72307617 -7.95507812 9.6640625 C-7.95189575 8.76123535 -7.94871338 7.8584082 -7.94543457 6.92822266 C-6.98153323 2.32021364 -4.49405683 0.65368099 0 0 Z " fill="#060603" transform="translate(130.4375,367.5)"/>
<path d="M0 0 C4.80517518 2.04264938 7.20342832 4.4862301 9.21484375 9.3046875 C10.55184075 13.78657052 10.28009869 17.15293767 8.7109375 21.51171875 C5.91577924 25.79762808 2.78818033 28.73597114 -2.1640625 30.38671875 C-7.93604448 30.94171702 -11.71531795 29.99649411 -16.1640625 26.38671875 C-20.26508266 21.09856117 -21.73206014 17.08909085 -21.1640625 10.38671875 C-16.58592603 1.73912764 -9.69545623 -2.74762929 0 0 Z " fill="#FA6A77" transform="translate(277.1640625,225.61328125)"/>
<path d="M0 0 C3.63525215 2.60789828 4.83397068 4.0702358 5.625 8.5 C4.83397068 12.9297642 3.63525215 14.39210172 0 17 C-3.7992366 17.71235686 -5.43724821 17.31263988 -8.8125 15.4375 C-11.69099731 12.23003157 -12.07517661 10.2850666 -12 6 C-8.72400863 0.8035999 -6.13119148 -0.72131664 0 0 Z " fill="#070808" transform="translate(354,369)"/>
<path d="M0 0 C4.4297642 0.79102932 5.89210172 1.98974785 8.5 5.625 C9.2446324 9.59637281 8.87266878 11.06599683 6.625 14.4375 C4.12980912 17.00607884 3.21830363 17.52922618 -0.3125 18 C-3.5 17.625 -3.5 17.625 -6.375 15.5625 C-8.5 12.625 -8.5 12.625 -9.125 9.125 C-8.11027445 3.44253693 -5.68246307 1.01472555 0 0 Z " fill="#080809" transform="translate(113.5,231.375)"/>
<path d="M0 0 C4.4297642 0.79102932 5.89210172 1.98974785 8.5 5.625 C9.21235686 9.4242366 8.81263988 11.06224821 6.9375 14.4375 C3.73003157 17.31599731 1.7850666 17.70017661 -2.5 17.625 C-5.30189446 15.85858828 -7.01524911 14.59450178 -8.5 11.625 C-9.03507099 7.6119676 -8.83051628 6.08571967 -6.4375 2.75 C-3.5 0.625 -3.5 0.625 0 0 Z " fill="#080808" transform="translate(134.5,152.375)"/>
<path d="M0 0 C4.4297642 0.79102932 5.89210172 1.98974785 8.5 5.625 C9.21235686 9.4242366 8.81263988 11.06224821 6.9375 14.4375 C3.73003157 17.31599731 1.7850666 17.70017661 -2.5 17.625 C-5.30189446 15.85858828 -7.01524911 14.59450178 -8.5 11.625 C-9.03507099 7.6119676 -8.83051628 6.08571967 -6.4375 2.75 C-3.5 0.625 -3.5 0.625 0 0 Z " fill="#080808" transform="translate(192.5,94.375)"/>
<path d="M0 0 C2.4375 1.625 2.4375 1.625 4 4 C4.72125695 8.40768137 4.52001338 10.25937488 1.9375 13.9375 C-1 16 -1 16 -4.5 16.6875 C-8 16 -8 16 -11 13.4375 C-13 10 -13 10 -13.125 6.375 C-10.80869361 -0.57391916 -6.85196698 -1.99329948 0 0 Z " fill="#060707" transform="translate(276,391)"/>
<path d="M0 0 C2.89575248 2.35279889 2.97594691 3.77550449 3.375 7.5 C2.81662592 12.71149144 2.81662592 12.71149144 0 15 C-2.71770739 15.90590246 -5.14244196 16.22281154 -8 16 C-10.9375 14.5 -10.9375 14.5 -13 12 C-14.0625 8.5625 -14.0625 8.5625 -14 5 C-10.19147796 -1.04110392 -6.79085133 -1.76367713 0 0 Z " fill="#060707" transform="translate(414,312)"/>
<path d="M0 0 C4.14866582 0.66674986 5.81886615 1.31264078 8.5 4.5625 C9.36173367 9.49788377 9.36173367 9.49788377 8.5 12.5625 C6.27884397 15.62946048 3.64521703 17.28317877 -0.0625 18.1875 C-3.5661098 17.28913851 -5.15574658 15.23234417 -7.5 12.5625 C-7.83 12.2325 -8.16 11.9025 -8.5 11.5625 C-9.04441566 7.5701185 -8.8175546 6.00515187 -6.4375 2.6875 C-3.5 0.5625 -3.5 0.5625 0 0 Z " fill="#080809" transform="translate(408.5,152.4375)"/>
<path d="M0 0 C2.9375 1.5 2.9375 1.5 5 4 C5.65466318 6.80241781 5.61113838 9.19222271 5 12 C2.87051297 15.32199976 1.3367893 15.89590149 -2.4375 17.0625 C-6 17 -6 17 -8.875 14.625 C-9.57625 13.75875 -10.2775 12.8925 -11 12 C-11.33 11.67 -11.66 11.34 -12 11 C-11.78847825 7.2631157 -11.46935216 4.70402823 -9.375 1.5625 C-6.02385272 -0.64220216 -3.93750984 -0.55263296 0 0 Z " fill="#070809" transform="translate(354,95)"/>
<path d="M0 0 C2.9375 1.5 2.9375 1.5 5 4 C5.7975483 9.02455429 5.82360163 10.83726829 2.875 15 C0 17 0 17 -3 17.625 C-7.14182881 16.762119 -8.56226471 15.44150865 -11 12 C-11.89291241 8.07894985 -11.6077527 4.97240433 -9.4375 1.5 C-6.03618625 -0.59311615 -3.92927257 -0.55147685 0 0 Z " fill="#060707" transform="translate(433,232)"/>
<path d="M0 0 C2.5 1.5 2.5 1.5 4 4 C4.79710231 8.05193677 4.68780769 10.96828847 2.375 14.4375 C-0.52534996 16.34562497 -2.5368575 16.8557024 -6 17 C-9.36056696 15.87981101 -9.96356066 15.05465901 -12 12 C-12.65753425 5.09589041 -12.65753425 5.09589041 -10.5 1.5 C-6.96411027 -0.62153384 -4.02098277 -0.791013 0 0 Z " fill="#060502" transform="translate(135,441)"/>
</svg>
